<svg width="830" height="143" viewBox="0 0 830 143" fill="none" xmlns="http://www.w3.org/2000/svg">
<rect x="587.196" width="242.804" height="143" rx="71.5" fill="#F1302B"/>
<rect x="587.196" width="80.9346" height="79.0706" fill="#F1302B"/>
<rect x="749.065" y="64.7706" width="80.9346" height="78.2294" fill="#F1302B"/>
<g filter="url(#filter0_d_244_2)">
<path d="M675.03 107.152C665.494 107.152 658.038 104.496 652.662 99.184C647.286 93.872 644.598 86.288 644.598 76.432V38.8H660.15V75.856C660.15 82.256 661.462 86.864 664.086 89.68C666.71 92.496 670.39 93.904 675.126 93.904C679.862 93.904 683.542 92.496 686.166 89.68C688.79 86.864 690.102 82.256 690.102 75.856V38.8H705.462V76.432C705.462 86.288 702.774 93.872 697.398 99.184C692.022 104.496 684.566 107.152 675.03 107.152ZM711.231 106V38.8H724.095L763.743 87.184H757.503V38.8H772.863V106H760.095L720.351 57.616H726.591V106H711.231Z" fill="white"/>
</g>
<g filter="url(#filter1_d_244_2)">
<path d="M37.4678 106V38.8H65.1158C71.0678 38.8 76.1558 39.76 80.3798 41.68C84.6678 43.6 87.9638 46.352 90.2678 49.936C92.5718 53.52 93.7238 57.776 93.7238 62.704C93.7238 67.632 92.5718 71.888 90.2678 75.472C87.9638 79.056 84.6678 81.808 80.3798 83.728C76.1558 85.648 71.0678 86.608 65.1158 86.608H44.3798L49.9478 80.752V106H37.4678ZM49.9478 82.096L44.3798 76.048H64.5398C70.0438 76.048 74.1718 74.896 76.9238 72.592C79.7398 70.224 81.1478 66.928 81.1478 62.704C81.1478 58.416 79.7398 55.12 76.9238 52.816C74.1718 50.512 70.0438 49.36 64.5398 49.36H44.3798L49.9478 43.216V82.096ZM123.087 106.672C117.839 106.672 113.167 105.552 109.071 103.312C104.975 101.008 101.743 97.872 99.375 93.904C97.007 89.936 95.823 85.424 95.823 80.368C95.823 75.248 97.007 70.736 99.375 66.832C101.743 62.864 104.975 59.76 109.071 57.52C113.167 55.28 117.839 54.16 123.087 54.16C128.399 54.16 133.103 55.28 137.199 57.52C141.359 59.76 144.591 62.832 146.895 66.736C149.263 70.64 150.447 75.184 150.447 80.368C150.447 85.424 149.263 89.936 146.895 93.904C144.591 97.872 141.359 101.008 137.199 103.312C133.103 105.552 128.399 106.672 123.087 106.672ZM123.087 96.4C126.031 96.4 128.655 95.76 130.959 94.48C133.263 93.2 135.055 91.344 136.335 88.912C137.679 86.48 138.351 83.632 138.351 80.368C138.351 77.04 137.679 74.192 136.335 71.824C135.055 69.392 133.263 67.536 130.959 66.256C128.655 64.976 126.063 64.336 123.183 64.336C120.239 64.336 117.615 64.976 115.311 66.256C113.071 67.536 111.279 69.392 109.935 71.824C108.591 74.192 107.919 77.04 107.919 80.368C107.919 83.632 108.591 86.48 109.935 88.912C111.279 91.344 113.071 93.2 115.311 94.48C117.615 95.76 120.207 96.4 123.087 96.4ZM172.962 106.672C168.674 106.672 164.546 106.128 160.578 105.04C156.674 103.888 153.57 102.512 151.266 100.912L155.874 91.792C158.178 93.264 160.93 94.48 164.13 95.44C167.33 96.4 170.53 96.88 173.73 96.88C177.506 96.88 180.226 96.368 181.89 95.344C183.618 94.32 184.482 92.944 184.482 91.216C184.482 89.808 183.906 88.752 182.754 88.048C181.602 87.28 180.098 86.704 178.242 86.32C176.386 85.936 174.306 85.584 172.002 85.264C169.762 84.944 167.49 84.528 165.186 84.016C162.946 83.44 160.898 82.64 159.042 81.616C157.186 80.528 155.682 79.088 154.53 77.296C153.378 75.504 152.802 73.136 152.802 70.192C152.802 66.928 153.73 64.112 155.586 61.744C157.442 59.312 160.034 57.456 163.362 56.176C166.754 54.832 170.754 54.16 175.362 54.16C178.818 54.16 182.306 54.544 185.826 55.312C189.346 56.08 192.258 57.168 194.562 58.576L189.954 67.696C187.522 66.224 185.058 65.232 182.562 64.72C180.13 64.144 177.698 63.856 175.266 63.856C171.618 63.856 168.898 64.4 167.106 65.488C165.378 66.576 164.514 67.952 164.514 69.616C164.514 71.152 165.09 72.304 166.242 73.072C167.394 73.84 168.898 74.448 170.754 74.896C172.61 75.344 174.658 75.728 176.898 76.048C179.202 76.304 181.474 76.72 183.714 77.296C185.954 77.872 188.002 78.672 189.858 79.696C191.778 80.656 193.314 82.032 194.466 83.824C195.618 85.616 196.194 87.952 196.194 90.832C196.194 94.032 195.234 96.816 193.314 99.184C191.458 101.552 188.802 103.408 185.346 104.752C181.89 106.032 177.762 106.672 172.962 106.672ZM221.024 106.672C215.392 106.672 211.04 105.232 207.968 102.352C204.896 99.408 203.36 95.088 203.36 89.392V43.408H215.36V89.104C215.36 91.536 215.968 93.424 217.184 94.768C218.464 96.112 220.224 96.784 222.464 96.784C225.152 96.784 227.392 96.08 229.184 94.672L232.544 103.216C231.136 104.368 229.408 105.232 227.36 105.808C225.312 106.384 223.2 106.672 221.024 106.672ZM194.912 64.72V55.12H229.088V64.72H194.912ZM302.32 54.16C306.416 54.16 310.032 54.96 313.168 56.56C316.368 58.16 318.864 60.624 320.656 63.952C322.448 67.216 323.344 71.44 323.344 76.624V106H311.344V78.16C311.344 73.616 310.352 70.224 308.368 67.984C306.384 65.744 303.536 64.624 299.824 64.624C297.2 64.624 294.864 65.2 292.816 66.352C290.832 67.504 289.264 69.2 288.112 71.44C287.024 73.68 286.48 76.528 286.48 79.984V106H274.48V78.16C274.48 73.616 273.488 70.224 271.504 67.984C269.52 65.744 266.672 64.624 262.96 64.624C260.336 64.624 258 65.2 255.952 66.352C253.968 67.504 252.4 69.2 251.248 71.44C250.16 73.68 249.616 76.528 249.616 79.984V106H237.616V54.736H249.04V68.368L247.024 64.336C248.752 61.008 251.248 58.48 254.512 56.752C257.84 55.024 261.616 54.16 265.84 54.16C270.64 54.16 274.8 55.344 278.32 57.712C281.904 60.08 284.272 63.664 285.424 68.464L280.72 66.832C282.384 62.992 285.136 59.92 288.976 57.616C292.816 55.312 297.264 54.16 302.32 54.16ZM365.462 106V95.632L364.79 93.424V75.28C364.79 71.76 363.734 69.04 361.622 67.12C359.51 65.136 356.31 64.144 352.022 64.144C349.142 64.144 346.294 64.592 343.478 65.488C340.726 66.384 338.39 67.632 336.47 69.232L331.766 60.496C334.518 58.384 337.782 56.816 341.558 55.792C345.398 54.704 349.366 54.16 353.462 54.16C360.886 54.16 366.614 55.952 370.646 59.536C374.742 63.056 376.79 68.528 376.79 75.952V106H365.462ZM349.334 106.672C345.494 106.672 342.134 106.032 339.254 104.752C336.374 103.408 334.134 101.584 332.534 99.28C330.998 96.912 330.23 94.256 330.23 91.312C330.23 88.432 330.902 85.84 332.246 83.536C333.654 81.232 335.926 79.408 339.062 78.064C342.198 76.72 346.358 76.048 351.542 76.048H366.422V84.016H352.406C348.31 84.016 345.558 84.688 344.15 86.032C342.742 87.312 342.038 88.912 342.038 90.832C342.038 93.008 342.902 94.736 344.63 96.016C346.358 97.296 348.758 97.936 351.83 97.936C354.774 97.936 357.398 97.264 359.702 95.92C362.07 94.576 363.766 92.592 364.79 89.968L366.806 97.168C365.654 100.176 363.574 102.512 360.566 104.176C357.622 105.84 353.878 106.672 349.334 106.672ZM403.231 106.672C398.943 106.672 394.815 106.128 390.847 105.04C386.943 103.888 383.839 102.512 381.535 100.912L386.143 91.792C388.447 93.264 391.199 94.48 394.399 95.44C397.599 96.4 400.799 96.88 403.999 96.88C407.775 96.88 410.495 96.368 412.159 95.344C413.887 94.32 414.751 92.944 414.751 91.216C414.751 89.808 414.175 88.752 413.023 88.048C411.871 87.28 410.367 86.704 408.511 86.32C406.655 85.936 404.575 85.584 402.271 85.264C400.031 84.944 397.759 84.528 395.455 84.016C393.215 83.44 391.167 82.64 389.311 81.616C387.455 80.528 385.951 79.088 384.799 77.296C383.647 75.504 383.071 73.136 383.071 70.192C383.071 66.928 383.999 64.112 385.855 61.744C387.711 59.312 390.303 57.456 393.631 56.176C397.023 54.832 401.023 54.16 405.631 54.16C409.087 54.16 412.575 54.544 416.095 55.312C419.615 56.08 422.527 57.168 424.831 58.576L420.223 67.696C417.791 66.224 415.327 65.232 412.831 64.72C410.399 64.144 407.967 63.856 405.535 63.856C401.887 63.856 399.167 64.4 397.375 65.488C395.647 66.576 394.783 67.952 394.783 69.616C394.783 71.152 395.359 72.304 396.511 73.072C397.663 73.84 399.167 74.448 401.023 74.896C402.879 75.344 404.927 75.728 407.167 76.048C409.471 76.304 411.743 76.72 413.983 77.296C416.223 77.872 418.271 78.672 420.127 79.696C422.047 80.656 423.583 82.032 424.735 83.824C425.887 85.616 426.463 87.952 426.463 90.832C426.463 94.032 425.503 96.816 423.583 99.184C421.727 101.552 419.071 103.408 415.615 104.752C412.159 106.032 408.031 106.672 403.231 106.672ZM451.293 106.672C445.661 106.672 441.309 105.232 438.237 102.352C435.165 99.408 433.629 95.088 433.629 89.392V43.408H445.629V89.104C445.629 91.536 446.237 93.424 447.453 94.768C448.733 96.112 450.493 96.784 452.733 96.784C455.421 96.784 457.661 96.08 459.453 94.672L462.813 103.216C461.405 104.368 459.677 105.232 457.629 105.808C455.581 106.384 453.469 106.672 451.293 106.672ZM425.181 64.72V55.12H459.357V64.72H425.181ZM490.293 106.672C484.597 106.672 479.605 105.552 475.317 103.312C471.093 101.008 467.797 97.872 465.429 93.904C463.125 89.936 461.973 85.424 461.973 80.368C461.973 75.248 463.093 70.736 465.333 66.832C467.637 62.864 470.773 59.76 474.741 57.52C478.773 55.28 483.349 54.16 488.469 54.16C493.461 54.16 497.909 55.248 501.813 57.424C505.717 59.6 508.789 62.672 511.029 66.64C513.269 70.608 514.389 75.28 514.389 80.656C514.389 81.168 514.357 81.744 514.293 82.384C514.293 83.024 514.261 83.632 514.197 84.208H471.477V76.24H507.861L503.157 78.736C503.221 75.792 502.613 73.2 501.333 70.96C500.053 68.72 498.293 66.96 496.053 65.68C493.877 64.4 491.349 63.76 488.469 63.76C485.525 63.76 482.933 64.4 480.693 65.68C478.517 66.96 476.789 68.752 475.509 71.056C474.293 73.296 473.685 75.952 473.685 79.024V80.944C473.685 84.016 474.389 86.736 475.797 89.104C477.205 91.472 479.189 93.296 481.749 94.576C484.309 95.856 487.253 96.496 490.581 96.496C493.461 96.496 496.053 96.048 498.357 95.152C500.661 94.256 502.709 92.848 504.501 90.928L510.933 98.32C508.629 101.008 505.717 103.088 502.197 104.56C498.741 105.968 494.773 106.672 490.293 106.672ZM521.116 106V54.736H532.54V68.848L531.196 64.72C532.732 61.264 535.132 58.64 538.396 56.848C541.724 55.056 545.852 54.16 550.78 54.16V65.584C550.268 65.456 549.788 65.392 549.34 65.392C548.892 65.328 548.444 65.296 547.996 65.296C543.452 65.296 539.836 66.64 537.148 69.328C534.46 71.952 533.116 75.888 533.116 81.136V106H521.116Z" fill="white"/>
</g>
<defs>
<filter id="filter0_d_244_2" x="633.598" y="27.8" width="158.264" height="98.352" filterUnits="userSpaceOnUse" color-interpolation-filters="sRGB">
<feFlood flood-opacity="0" result="BackgroundImageFix"/>
<feColorMatrix in="SourceAlpha" type="matrix" values="0 0 0 0 0 0 0 0 0 0 0 0 0 0 0 0 0 0 127 0" result="hardAlpha"/>
<feOffset dx="4" dy="4"/>
<feGaussianBlur stdDeviation="7.5"/>
<feComposite in2="hardAlpha" operator="out"/>
<feColorMatrix type="matrix" values="0 0 0 0 0 0 0 0 0 0 0 0 0 0 0 0 0 0 0.7 0"/>
<feBlend mode="normal" in2="BackgroundImageFix" result="effect1_dropShadow_244_2"/>
<feBlend mode="normal" in="SourceGraphic" in2="effect1_dropShadow_244_2" result="shape"/>
</filter>
<filter id="filter1_d_244_2" x="33.4678" y="34.8" width="529.312" height="83.872" filterUnits="userSpaceOnUse" color-interpolation-filters="sRGB">
<feFlood flood-opacity="0" result="BackgroundImageFix"/>
<feColorMatrix in="SourceAlpha" type="matrix" values="0 0 0 0 0 0 0 0 0 0 0 0 0 0 0 0 0 0 127 0" result="hardAlpha"/>
<feOffset dx="4" dy="4"/>
<feGaussianBlur stdDeviation="4"/>
<feComposite in2="hardAlpha" operator="out"/>
<feColorMatrix type="matrix" values="0 0 0 0 0 0 0 0 0 0 0 0 0 0 0 0 0 0 0.7 0"/>
<feBlend mode="normal" in2="BackgroundImageFix" result="effect1_dropShadow_244_2"/>
<feBlend mode="normal" in="SourceGraphic" in2="effect1_dropShadow_244_2" result="shape"/>
</filter>
</defs>
</svg>
